<?xml version="1.0" encoding="utf-8"?>
<!-- Svg Vector Icons : http://www.onlinewebfonts.com/icon -->
<!DOCTYPE svg PUBLIC "-//W3C//DTD SVG 1.1//EN" "http://www.w3.org/Graphics/SVG/1.1/DTD/svg11.dtd">
<svg version="1.1" fill="#0071B1" xmlns="http://www.w3.org/2000/svg" xmlns:xlink="http://www.w3.org/1999/xlink" x="0px" y="0px" viewBox="0 0 1000 1000" enable-background="new 0 0 1000 1000" xml:space="preserve">
<metadata> Svg Vector Icons : http://www.onlinewebfonts.com/icon </metadata>
<g><g transform="translate(0.000000,511.000000) scale(0.100000,-0.100000)"><path d="M4481.3,4983.6c-940.4-93.8-1908.8-511.1-2655.6-1140.1c-503.2-425.3-928.5-972.4-1228-1581.4C-113.1,814.5-59.2-924.6,737.5-2314.3c708.8-1232,1910.8-2104.5,3284.5-2380c375.4-75.9,553.1-91.8,988.4-89.9c485.2,0,744.8,32,1168.1,137.8c359.4,89.8,629,187.7,978.4,359.4c1962.7,958.4,3052.9,3110.8,2665.6,5261.2c-255.6,1411.7-1100.2,2623.6-2342.1,3358.4c-591,349.4-1321.8,589-2008.7,654.9C5228,5011.5,4734.9,5009.5,4481.3,4983.6z M5399.8,3292.4c904.5-187.7,1547.4-934.4,1601.3-1860.9C7039,768.6,6763.5,97.7,5549.5-2110.6c-205.7-373.4-415.3-754.7-465.2-846.6l-89.9-167.7l-71.9,139.8c-37.9,77.9-265.6,495.2-503.2,926.4C3512.9-413.4,3125.6,423.1,3025.7,954.3c-67.9,349.4-28,766.7,105.8,1108.2c169.7,443.3,539.1,846.6,970.4,1062.2c137.8,69.9,407.3,159.7,557.1,183.7C4846.7,3340.3,5208.1,3332.3,5399.8,3292.4z"/><path d="M4780.8,2873.1C4062,2757.3,3522.9,2206.2,3433,1493.4c-53.9-433.3,75.9-844.6,601-1896.8c419.3-840.6,948.4-1795,976.4-1763.1c8,8,117.8,199.7,243.6,425.3c686.8,1222,1156.1,2208.3,1273.9,2665.6c53.9,213.6,53.9,543.1,0,760.7c-141.8,565.1-603,1024.3-1162.1,1156.1C5208.1,2877.1,4912.6,2893,4780.8,2873.1z M5294,1926.7c131.8-63.9,281.5-217.6,341.4-349.4c61.9-133.8,61.9-413.3,0-547.1c-59.9-131.8-209.6-285.5-343.4-349.4c-97.8-47.9-135.8-55.9-291.5-55.9c-151.7,0-197.7,8-291.5,51.9c-143.8,67.9-267.6,191.7-335.4,335.4c-43.9,95.8-51.9,137.8-51.9,301.5c0,161.7,8,203.7,47.9,279.5c99.8,189.7,203.7,283.5,393.3,361.4C4906.6,2012.5,5146.2,1998.5,5294,1926.7z"/></g></g>
</svg>
