<?xml version="1.0" encoding="iso-8859-1"?>
<!-- Generator: Adobe Illustrator 19.0.0, SVG Export Plug-In . SVG Version: 6.00 Build 0)  -->
<svg version="1.1" id="Layer_1" xmlns="http://www.w3.org/2000/svg" xmlns:xlink="http://www.w3.org/1999/xlink" x="0px" y="0px"
	 viewBox="0 0 468.8 468.8" style="enable-background:new 0 0 468.8 468.8;" xml:space="preserve">
<circle style="fill:#D3E2DD;" cx="234.8" cy="216.8" r="216.8"/>
<path style="fill:#C3D8D0;" d="M81.2,64c84.8-84.8,221.6-84.8,306.4,0s84.8,221.6,0,306.4"/>
<path style="fill:#C42C87;" d="M395.6,444c37.6-40,60.8-92.8,60.8-152c0-122.4-99.2-221.6-222.4-221.6S12.4,168.8,12.4,292
	c0,59.2,23.2,112,60.8,152H395.6z"/>
<path style="fill:#AA1374;" d="M234.8,444h160.8c37.6-40,60.8-92.8,60.8-152c0-122.4-99.2-221.6-222.4-221.6"/>
<path style="fill:#2BCC51;" d="M145.2,444h179.2c52-32,87.2-87.2,87.2-152c0-97.6-79.2-176.8-176.8-176.8S58,194.4,58,292
	C58,356.8,93.2,412,145.2,444z"/>
<path style="fill:#34B24E;" d="M234.8,444h89.6c52-32,87.2-87.2,87.2-152c0-97.6-79.2-176.8-176.8-176.8"/>
<circle style="fill:#FCD30B;" cx="234.8" cy="301.6" r="131.2"/>
<path style="fill:#E8B105;" d="M234.8,170.4c72,0,131.2,58.4,131.2,131.2c0,72-58.4,131.2-131.2,131.2"/>
<circle style="fill:#D84707;" cx="234.8" cy="301.6" r="80.8"/>
<path style="fill:#D60909;" d="M234.8,220.8c44.8,0,80.8,36,80.8,80.8s-36,80.8-80.8,80.8"/>
<path style="fill:#DCF9F6;" d="M274.8,344c0-47.2-38.4-84.8-85.6-84.8c-33.6,0-62.4,19.2-76,47.2c-3.2-0.8-6.4-1.6-9.6-1.6
	c-22.4,0-40,18.4-40,40c0,0.8,0,1.6,0,2.4c-29.6,4-44.8,29.6-44.8,60.8v4c0,32.8,26.4,56,59.2,56h136c32.8,0,60.8-23.2,60.8-56
	v-19.2C274.8,376.8,274.8,360,274.8,344z"/>
<path style="fill:#BDE5E1;" d="M274.8,356c0-47.2-38.4-84.8-85.6-84.8c-33.6,0-62.4,19.2-76,47.2c-3.2-1.6-6.4-2.4-9.6-2.4
	c-22.4,0-40,18.4-40,40c0,0.8,0,1.6,0,2.4c-29.6,3.2-44.8,17.6-44.8,48v5.6c0,32.8,26.4,56,59.2,56h136c32.8,0,60.8-23.2,60.8-56
	v-19.2C274.8,376.8,274.8,372,274.8,356z"/>
<path style="fill:#B1DDD9;" d="M74.8,468H214c32.8,0,60.8-23.2,60.8-56v-19.2c0-15.2-1.6-23.2-1.6-38.4"/>
<g>
	<path style="fill:#DCF9F6;" d="M152.4,356.8c-2.4-0.8-4.8-1.6-8-1.6c-16,0-28.8,12.8-28.8,28.8c0,2.4,0.8,5.6,1.6,8
		C119.6,373.6,134,359.2,152.4,356.8z"/>
	<path style="fill:#DCF9F6;" d="M202,330.4c-3.2-1.6-6.4-3.2-10.4-4c-20.8-4-41.6,10.4-45.6,31.2c-0.8,4-0.8,7.2,0,11.2
		C153.2,345.6,176.4,328.8,202,330.4z"/>
</g>
<g>
	<circle style="fill:#B1DDD9;" cx="46.8" cy="403.2" r="3.2"/>
	<path style="fill:#B1DDD9;" d="M58.8,381.6c0,2.4-1.6,4-4,4s-4-1.6-4-4s1.6-4,4-4S58.8,379.2,58.8,381.6z"/>
	<path style="fill:#B1DDD9;" d="M105.2,340.8c0,0.8-0.8,1.6-1.6,1.6s-1.6-0.8-1.6-1.6c0-0.8,0.8-1.6,1.6-1.6
		C104.4,339.2,105.2,340,105.2,340.8z"/>
</g>
<g>
	<circle style="fill:#DCF9F6;" cx="142.8" cy="319.2" r="4"/>
	<circle style="fill:#DCF9F6;" cx="176.4" cy="284.8" r="2.4"/>
	<circle style="fill:#DCF9F6;" cx="195.6" cy="291.2" r="6.4"/>
	<path style="fill:#DCF9F6;" d="M243.6,368c0-38.4,31.2-68.8,69.6-68.8c27.2,0,50.4,15.2,61.6,38.4c2.4-0.8,4.8-0.8,8-0.8
		c18.4,0,32.8,14.4,32.8,32.8c0,0.8,0,1.6,0,2.4c24,2.4,36,23.2,36,48.8v3.2c0,27.2-21.6,44.8-48,44.8H292.4
		c-27.2,0-49.6-18.4-49.6-44.8v-15.2C242.8,395.2,243.6,381.6,243.6,368z"/>
</g>
<path style="fill:#BDE5E1;" d="M243.6,377.6c0-38.4,31.2-68.8,69.6-68.8c27.2,0,50.4,15.2,61.6,38.4c2.4-0.8,4.8-0.8,8-0.8
	c18.4,0,32.8,14.4,32.8,32.8c0,0.8,0,1.6,0,2.4c24,2.4,36,13.6,36,39.2v3.2c0,27.2-21.6,44.8-48,44.8H292.4
	c-27.2,0-49.6-18.4-49.6-44.8v-15.2C242.8,395.2,243.6,390.4,243.6,377.6z"/>
<path style="fill:#B1DDD9;" d="M402.8,468H292.4c-27.2,0-49.6-18.4-49.6-44.8V408c0-12.8,0.8-19.2,0.8-32"/>
<g>
	<path style="fill:#DCF9F6;" d="M342.8,378.4c2.4-0.8,4-0.8,6.4-0.8c12.8,0,23.2,10.4,23.2,23.2c0,2.4-0.8,4-0.8,6.4
		C369.2,392,357.2,380,342.8,378.4z"/>
	<path style="fill:#DCF9F6;" d="M302.8,357.6c2.4-1.6,5.6-2.4,8.8-3.2c16.8-3.2,33.6,8,36.8,25.6c0.8,3.2,0.8,6.4,0,8.8
		C342,368.8,322.8,356,302.8,357.6z"/>
</g>
<g>
	<circle style="fill:#B1DDD9;" cx="427.6" cy="416" r="2.4"/>
	<circle style="fill:#B1DDD9;" cx="422" cy="398.4" r="3.2"/>
	<circle style="fill:#B1DDD9;" cx="382" cy="365.6" r="1.6"/>
</g>
<g>
	<circle style="fill:#DCF9F6;" cx="350" cy="348" r="3.2"/>
	<circle style="fill:#DCF9F6;" cx="322.8" cy="320" r="1.6"/>
	<circle style="fill:#DCF9F6;" cx="307.6" cy="324.8" r="4.8"/>
</g>
<polygon style="fill:#B1DDD9;" points="298.8,468 202.8,468 202.8,416 238.8,382.4 298.8,416 "/>
<g>
</g>
<g>
</g>
<g>
</g>
<g>
</g>
<g>
</g>
<g>
</g>
<g>
</g>
<g>
</g>
<g>
</g>
<g>
</g>
<g>
</g>
<g>
</g>
<g>
</g>
<g>
</g>
<g>
</g>
</svg>
